#!OML:ASF H:\LiuWeirdWalks\Patient Classification 1\Patient 1\Session 1\male.ASF
:FULLY-SPECIFIED
:DEGREES
795
root 1.61003 18.1606 40.0225 6.4406 2.87667 -1.43176
lowerback -1.89639 2.62143 4.24126
upperback -2.46662 3.46088 -0.309698
thorax -1.20487 1.66565 -2.65423
lowerneck -24.4465 -1.30148 1.55177
upperneck 28.5051 -1.59398 -2.69691
head 13.7211 -0.901869 -1.63488
rclavicle -1.38909e-014 -2.78299e-015
rhumerus -39.0214 -19.6118 -69.4165
rradius 31.9243
rwrist -4.73743
rhand -14.4397 -1.61594
rfingers 7.12502
rthumb 11.7051 -31.2689
lclavicle -1.38909e-014 -2.78299e-015
lhumerus -35.9586 -4.73426 80.8467
lradius 33.73
lwrist 6.61568
lhand -11.9512 -2.16171
lfingers 7.12502
lthumb 14.104 27.3396
rfemur -14.9595 -1.70423 24.7474
rtibia 28.1909
rfoot -7.72957 -13.7105
rtoes 0.453823
lfemur -12.7614 -3.40988 -17.3459
ltibia 23.7971
lfoot -4.83871 15.4257
ltoes 1.11887
796
root 1.61561 18.1611 40.0396 6.4887 2.92488 -1.54507
lowerback -1.92156 2.6177 4.39084
upperback -2.46583 3.45359 -0.285977
thorax -1.18378 1.66042 -2.71201
lowerneck -24.4434 -1.31335 1.51655
upperneck 28.4875 -1.59713 -2.69564
head 13.7133 -0.907123 -1.62856
rclavicle 2.52169e-014 -6.60959e-015
rhumerus -39.0954 -19.7032 -69.3954
rradius 31.7694
rwrist -4.71355
rhand -14.4587 -1.60916
rfingers 7.12502
rthumb 11.6868 -31.2632
lclavicle 2.52169e-014 -6.60959e-015
lhumerus -35.8677 -4.60644 80.7615
lradius 33.7017
lwrist 6.65516
lhand -11.9358 -2.1228
lfingers 7.12502
lthumb 14.1189 27.3775
rfemur -14.9188 -1.72485 24.8562
rtibia 28.1191
rfoot -7.74343 -13.7233
rtoes 0.444475
lfemur -12.8128 -3.41562 -17.232
ltibia 23.881
lfoot -4.89105 15.3997
ltoes 0.988511
797
root 1.62099 18.1616 40.0572 6.54319 2.97873 -1.68081
lowerback -1.97214 2.60533 4.54348
upperback -2.46161 3.43337 -0.244133
thorax -1.14693 1.64926 -2.75178
lowerneck -24.4413 -1.30676 1.51118
upperneck 28.4511 -1.57615 -2.72359
head 13.6978 -0.90304 -1.6341
rclavicle -1.37014e-014 -4.47266e-015
rhumerus -39.1415 -19.7847 -69.3695
rradius 31.6022
rwrist -4.65691
rhand -14.4789 -1.58274
rfingers 7.12502
rthumb 11.6673 -31.2379
lclavicle -1.37014e-014 -4.47266e-015
lhumerus -35.7834 -4.46994 80.6893
lradius 33.6648
lwrist 6.68854
lhand -11.9118 -2.09104
lfingers 7.12502
lthumb 14.142 27.4077
rfemur -14.8745 -1.72689 24.9907
rtibia 28.0274
rfoot -7.7474 -13.755
rtoes 0.452775
lfemur -12.8805 -3.43362 -17.0938
ltibia 23.9861
lfoot -4.9511 15.3943
ltoes 0.864752
798
root 1.62762 18.1618 40.0733 6.5742 2.99991 -1.75756
lowerback -1.97487 2.49545 4.50253
upperback -2.47755 3.28847 -0.132154
thorax -1.18207 1.57713 -2.61719
lowerneck -24.3461 -1.16522 1.66493
upperneck 28.3826 -1.37355 -2.90212
head 13.6518 -0.824722 -1.69105
rclavicle -2.36833e-015 9.83984e-015
rhumerus -39.0992 -19.5535 -69.4304
rradius 31.4241
rwrist -4.57677
rhand -14.4793 -1.56319
rfingers 7.12502
rthumb 11.6669 -31.2184
lclavicle -2.36833e-015 9.83984e-015
lhumerus -35.8416 -4.05118 80.5745
lradius 33.6497
lwrist 6.70969
lhand -11.8937 -2.08012
lfingers 7.12502
lthumb 14.1594 27.4174
rfemur -14.8086 -1.70989 25.0548
rtibia 27.9426
rfoot -7.75009 -13.7836
rtoes 0.451723
lfemur -12.9135 -3.47139 -17.0312
ltibia 24.0868
lfoot -5.00236 15.4456
ltoes 0.763627
799
root 1.63303 18.1624 40.0896 6.66844 3.0366 -1.84212
lowerback -2.05388 2.4531 4.54562
upperback -2.49293 3.22837 -0.0694437
thorax -1.15974 1.54719 -2.57467
lowerneck -24.3072 -1.10592 1.72319
upperneck 28.3282 -1.28095 -2.99312
head 13.6223 -0.791732 -1.71836
rclavicle 1.963e-015 -4.87022e-015
rhumerus -39.1099 -19.5289 -69.4196
rradius 31.2751
rwrist -4.4825
rhand -14.4706 -1.55192
rfingers 7.12502
rthumb 11.6753 -31.2066
lclavicle 1.963e-015 -4.87022e-015
lhumerus -35.8184 -3.89348 80.5345
lradius 33.6146
lwrist 6.74701
lhand -11.871 -2.07501
lfingers 7.12502
lthumb 14.1813 27.4209
rfemur -14.8158 -1.67758 25.1345
rtibia 27.8637
rfoot -7.74539 -13.8356
rtoes 0.451053
lfemur -13.0213 -3.51888 -16.9524
ltibia 24.1846
lfoot -5.04406 15.5003
ltoes 0.684745
800
root 1.63872 18.1627 40.1061 6.73429 3.05005 -1.9187
lowerback -2.10023 2.35506 4.49359
upperback -2.52167 3.09749 0.044174
thorax -1.18227 1.48243 -2.43031
lowerneck -24.2035 -0.972341 1.86723
upperneck 28.2602 -1.08852 -3.16374
head 13.576 -0.717387 -1.77238
rclavicle -2.51432e-014 9.83984e-015
rhumerus -39.0845 -19.3055 -69.4608
rradius 31.1371
rwrist -4.39469
rhand -14.4447 -1.5576
rfingers 7.12502
rthumb 11.7003 -31.2109
lclavicle -2.51432e-014 9.83984e-015
lhumerus -35.902 -3.60137 80.4808
lradius 33.6028
lwrist 6.75671
lhand -11.8531 -2.07904
lfingers 7.12502
lthumb 14.1986 27.4157
rfemur -14.7931 -1.62649 25.2028
rtibia 27.7922
rfoot -7.74755 -13.8895
rtoes 0.438717
lfemur -13.0863 -3.5721 -16.8883
ltibia 24.2727
lfoot -5.08937 15.5879
ltoes 0.631499
801
root 1.64436 18.1631 40.1227 6.79722 3.04665 -1.98733
lowerback -2.13977 2.24718 4.41063
upperback -2.55649 2.95452 0.167469
thorax -1.2169 1.41189 -2.25949
lowerneck -24.0906 -0.829235 2.01889
upperneck 28.2084 -0.884216 -3.33675
head 13.5358 -0.637073 -1.82684
rclavicle 5.26313e-015 5.76476e-015
rhumerus -39.0546 -19.0347 -69.5129
rradius 31.0179
rwrist -4.29963
rhand -14.3938 -1.58086
rfingers 7.12502
rthumb 11.7494 -31.2313
lclavicle 5.26313e-015 5.76476e-015
lhumerus -36.0239 -3.31237 80.4373
lradius 33.6121
lwrist 6.7606
lhand -11.8315 -2.08154
lfingers 7.12502
lthumb 14.2194 27.4117
rfemur -14.7668 -1.56239 25.2621
rtibia 27.7213
rfoot -7.74483 -13.9425
rtoes 0.411321
lfemur -13.1428 -3.62743 -16.8349
ltibia 24.3563
lfoot -5.13668 15.693
ltoes 0.597535
802
root 1.65037 18.1637 40.1393 6.85066 3.019 -2.0516
lowerback -2.16339 2.11105 4.27654
upperback -2.60348 2.77596 0.316321
thorax -1.27785 1.32398 -2.03551
lowerneck -23.9469 -0.654006 2.20192
upperneck 28.1712 -0.637867 -3.53192
head 13.4976 -0.537828 -1.88787
rclavicle -1.16072e-014 -2.08724e-014
rhumerus -39.0085 -18.6453 -69.6037
rradius 30.9141
rwrist -4.26484
rhand -14.3623 -1.61306
rfingers 7.12502
rthumb 11.7798 -31.2618
lclavicle -1.16072e-014 -2.08724e-014
lhumerus -36.2171 -2.96344 80.3873
lradius 33.6496
lwrist 6.76482
lhand -11.8171 -2.08195
lfingers 7.12502
lthumb 14.2333 27.4103
rfemur -14.7306 -1.4871 25.3139
rtibia 27.6505
rfoot -7.74125 -13.9846
rtoes 0.373195
lfemur -13.1784 -3.67558 -16.7903
ltibia 24.4284
lfoot -5.183 15.8116
ltoes 0.542408
803
root 1.65704 18.1643 40.1559 6.87849 2.96428 -2.10707
lowerback -2.16205 2.13119 4.35682
upperback -2.60876 2.8023 0.329871
thorax -1.27947 1.33586 -2.06605
lowerneck -23.9302 -0.661422 2.18625
upperneck 28.172 -0.645644 -3.52092
head 13.4943 -0.541268 -1.88205
rclavicle 1.91253e-014 1.25234e-014
rhumerus -39.0783 -18.6975 -69.5747
rradius 30.8605
rwrist -4.25096
rhand -14.3441 -1.63451
rfingers 7.12502
rthumb 11.7973 -31.2822
lclavicle 1.91253e-014 1.25234e-014
lhumerus -36.2225 -3.10296 80.4432
lradius 33.6583
lwrist 6.82245
lhand -11.8017 -2.06862
lfingers 7.12502
lthumb 14.2481 27.4226
rfemur -14.668 -1.40295 25.3511
rtibia 27.582
rfoot -7.74091 -14.0118
rtoes 0.338261
lfemur -13.1731 -3.7158 -16.7613
ltibia 24.4895
lfoot -5.22968 15.9425
ltoes 0.457554
